<svg width="1280" height="720" viewBox="0 0 1280 720" fill="none" xmlns="http://www.w3.org/2000/svg">
<g clip-path="url(#clip0_828_102)">
<rect width="1280" height="720" rx="30" fill="#FBFBFB"/>
<g opacity="0.15" clip-path="url(#clip1_828_102)">
<g opacity="0.12">
<g style="mix-blend-mode:lighten">
<g style="mix-blend-mode:lighten" opacity="0.2">
<path d="M2316.26 -488.097C2266.77 17.9098 1742.07 253.394 1405.22 128.861C712.621 -127.195 -61.9343 112.056 -155.495 732.242C-277.341 1539.91 -845.523 1566.14 -1145.29 1528.55" stroke="black" stroke-width="0.927032" stroke-miterlimit="10"/>
</g>
<g style="mix-blend-mode:lighten" opacity="0.23">
<path d="M2318.4 -484.548C2295.8 -126.988 2026.07 105.357 1763.18 148.201C1646.44 167.224 1528.02 159.683 1426.41 118.073C1250.02 45.832 1066.47 10.4468 887.077 12.1149C382.613 16.804 -42.1063 285.941 -126.194 748.531C-142.144 836.273 -162.868 914.841 -188.935 984.799C-403.825 1554.56 -866.235 1596.87 -1124.54 1564.48" stroke="black" stroke-width="1.04755" stroke-miterlimit="10"/>
</g>
<g style="mix-blend-mode:lighten" opacity="0.25">
<path d="M2320.56 -480.987C2309.65 -116.41 2032.96 127.506 1776.7 152.128C1663.12 163.041 1547.34 152.213 1447.63 107.297C1272.89 28.5813 1089.39 -9.09926 906.479 -3.40137C406.036 12.1917 1.96644 300.251 -96.8875 764.826C-115.393 851.795 -137.909 929.926 -167.179 999.058C-406.881 1565.14 -854.097 1631.74 -1103.79 1600.43" stroke="black" stroke-width="1.16806" stroke-miterlimit="10"/>
</g>
<g style="mix-blend-mode:lighten" opacity="0.28">
<path d="M2322.69 -477.439C2323.47 -105.842 2040.3 149.646 1790.21 156.041C1679.96 158.86 1566.63 144.674 1468.83 96.5044C1295.72 11.2409 1112.35 -28.7404 925.875 -18.9326C429.562 7.16954 46.2132 314.442 -67.5853 781.11C-88.5992 867.285 -113.11 944.957 -145.426 1013.3C-411.19 1575.32 -841.959 1666.59 -1083.05 1636.35" stroke="black" stroke-width="1.28394" stroke-miterlimit="10"/>
</g>
<g style="mix-blend-mode:lighten" opacity="0.3">
<path d="M2324.86 -473.908C2337.32 -95.2936 2048.16 171.865 1803.75 159.938C1697.01 154.728 1585.94 137.076 1490.05 85.6989C1318.54 -6.19204 1135.39 -48.4723 945.283 -34.4784C453.187 1.7559 90.6645 328.534 -38.273 797.376C-61.754 882.754 -88.3144 959.971 -123.664 1027.53C-415.618 1585.52 -829.815 1701.42 -1062.29 1672.27" stroke="black" stroke-width="1.40445" stroke-miterlimit="10"/>
</g>
<g style="mix-blend-mode:lighten" opacity="0.33">
<path d="M2327 -470.356C2351.14 -84.7259 2056.52 194.316 1817.25 163.853C1714.22 150.735 1605.22 129.442 1511.24 74.9104C1341.33 -23.686 1158.43 -68.2747 964.672 -50.0055C476.861 -4.00442 135.296 342.59 -8.9768 813.664C-34.8778 898.235 -63.5519 975.008 -101.914 1041.78C-420.188 1595.74 -817.685 1736.28 -1041.55 1708.2" stroke="black" stroke-width="1.52497" stroke-miterlimit="10"/>
</g>
<g style="mix-blend-mode:lighten" opacity="0.35">
<path d="M2329.15 -466.805C2364.99 -74.1578 2065.35 217.09 1830.78 167.77C1731.61 146.919 1624.52 121.766 1532.45 64.1246C1364.14 -41.2522 1181.53 -88.1615 984.076 -65.5277C500.602 -10.1057 180.143 356.609 20.3303 829.96C-7.94698 913.724 -38.7952 990.05 -80.1571 1056.04C-424.866 1605.96 -805.546 1771.14 -1020.8 1744.15" stroke="black" stroke-width="1.64548" stroke-miterlimit="10"/>
</g>
<g style="mix-blend-mode:lighten" opacity="0.38">
<path d="M2331.29 -463.253C2378.81 -63.5864 2074.55 240.295 1844.29 171.688C1749.12 143.325 1643.82 114.041 1553.65 53.3397C1386.93 -58.8944 1204.64 -108.142 1003.46 -81.0526C524.36 -16.5398 225.169 370.603 49.6222 846.246C19.0037 929.2 -14.0662 1005.08 -58.4154 1070.29C-429.679 1616.16 -793.421 1806 -1000.07 1780.08" stroke="black" stroke-width="1.766" stroke-miterlimit="10"/>
</g>
<g style="mix-blend-mode:lighten" opacity="0.41">
<path d="M2333.44 -459.706C2392.65 -53.0197 2084.01 264.02 1857.82 175.601C1766.71 139.988 1663.14 106.268 1574.86 42.5502C1409.75 -76.6213 1227.78 -128.22 1022.87 -96.5807C548.146 -23.2893 270.412 384.601 78.932 862.534C46.0181 944.682 10.6638 1020.11 -36.6544 1084.53C-434.578 1626.31 -781.277 1840.85 -979.315 1816.01" stroke="black" stroke-width="1.88187" stroke-miterlimit="10"/>
</g>
<g style="mix-blend-mode:lighten" opacity="0.43">
<path d="M2335.58 -456.153C2406.48 -42.4502 2093.57 288.328 1871.32 179.515C1784.3 136.908 1682.46 98.4558 1596.05 31.7616C1432.58 -94.4128 1250.91 -148.391 1042.25 -112.11C571.92 -30.3329 315.835 398.611 108.219 878.816C73.0498 960.163 35.3603 1035.12 -14.9176 1098.78C-439.603 1636.43 -769.16 1875.7 -958.588 1851.94" stroke="black" stroke-width="2.00239" stroke-miterlimit="10"/>
</g>
<g style="mix-blend-mode:lighten" opacity="0.46">
<path d="M2337.73 -452.609C2420.31 -31.8898 2103.08 313.213 1884.85 183.424C1801.87 134.08 1701.81 90.5974 1617.26 20.9674C1455.46 -112.283 1274.06 -168.661 1061.66 -127.642C595.71 -37.6602 361.469 412.653 137.532 895.099C100.141 975.657 60.0737 1050.13 6.84873 1113.02C-444.686 1646.49 -757.013 1910.55 -937.827 1887.87" stroke="black" stroke-width="2.1229" stroke-miterlimit="10"/>
</g>
<g style="mix-blend-mode:lighten" opacity="0.48">
<path d="M2339.88 -449.068C2434.15 -21.3317 2112.38 338.646 1898.37 187.331C1819.35 131.467 1721.19 82.7045 1638.47 10.1716C1478.37 -130.216 1297.21 -189.039 1081.05 -143.174C619.468 -45.2409 407.286 426.751 166.834 911.378C127.251 991.152 84.7678 1065.13 28.6005 1127.26C-449.867 1656.49 -744.875 1945.4 -917.084 1923.8" stroke="black" stroke-width="2.24342" stroke-miterlimit="10"/>
</g>
<g style="mix-blend-mode:lighten" opacity="0.51">
<path d="M2342.02 -445.524C2447.97 -10.7681 2121.34 364.559 1911.88 191.242C1836.7 129.04 1740.57 74.7786 1659.66 -0.620947C1501.31 -148.207 1320.33 -209.508 1100.44 -158.71C643.186 -53.0741 453.27 440.917 196.13 927.659C154.391 1006.67 109.443 1080.13 50.3475 1141.5C-455.121 1666.43 -732.748 1980.24 -896.343 1959.72" stroke="black" stroke-width="2.36393" stroke-miterlimit="10"/>
</g>
<g style="mix-blend-mode:lighten" opacity="0.54">
<path d="M2344.17 -441.965C2461.81 -0.190127 2129.89 390.877 1925.4 195.162C1853.91 126.75 1759.98 66.8385 1680.87 -11.4034C1524.3 -166.243 1343.45 -230.07 1119.84 -174.228C666.872 -61.1149 499.438 455.178 225.429 943.951C181.562 1022.2 134.119 1095.13 72.0966 1155.76C-460.431 1676.33 -720.616 2015.1 -875.604 1995.67" stroke="black" stroke-width="2.47981" stroke-miterlimit="10"/>
</g>
<g style="mix-blend-mode:lighten" opacity="0.56">
<path d="M2346.32 -438.411C2475.64 10.3774 2137.97 417.471 1938.91 199.083C1870.97 124.541 1779.42 58.8719 1702.07 -22.1857C1547.34 -184.327 1366.54 -250.729 1139.23 -189.753C690.506 -69.3748 545.766 469.526 254.729 960.242C208.759 1037.75 158.786 1110.12 93.8495 1170.01C-465.793 1686.14 -708.484 2049.96 -854.857 2031.6" stroke="black" stroke-width="2.60032" stroke-miterlimit="10"/>
</g>
<g style="mix-blend-mode:lighten" opacity="0.59">
<path d="M2348.47 -434.875C2489.48 20.933 2145.58 444.226 1952.44 202.985C1887.89 122.363 1798.9 50.8668 1723.28 -32.9864C1570.45 -202.474 1389.61 -271.51 1158.63 -205.29C714.098 -77.8412 592.259 483.965 284.038 976.52C235.989 1053.3 183.461 1125.09 115.609 1184.25C-471.192 1695.89 -696.342 2084.81 -834.107 2067.53" stroke="black" stroke-width="2.72084" stroke-miterlimit="10"/>
</g>
<g style="mix-blend-mode:lighten" opacity="0.61">
<path d="M2350.62 -431.325C2503.32 31.5006 2152.74 471.081 1965.96 206.901C1904.66 120.201 1818.39 42.8598 1744.49 -43.775C1593.6 -220.644 1412.64 -292.38 1178.04 -220.821C737.624 -86.4823 638.897 498.52 313.346 992.801C263.241 1068.88 208.127 1140.05 137.37 1198.49C-476.626 1705.57 -684.197 2119.65 -813.351 2103.46" stroke="black" stroke-width="2.84135" stroke-miterlimit="10"/>
</g>
<g style="mix-blend-mode:lighten" opacity="0.64">
<path d="M2352.77 -427.769C2517.15 42.076 2159.46 497.955 1979.48 210.817C1921.31 118.027 1837.91 34.8341 1765.69 -54.5622C1616.81 -238.851 1435.63 -313.35 1197.43 -236.345C761.08 -95.2781 685.664 513.201 342.648 1009.09C290.503 1084.47 232.785 1155.02 159.119 1212.74C-482.105 1715.19 -672.065 2154.51 -792.612 2139.4" stroke="black" stroke-width="2.96187" stroke-miterlimit="10"/>
</g>
<g style="mix-blend-mode:lighten" opacity="0.66">
<path d="M2354.91 -424.227C2530.98 52.6348 2165.82 524.766 1992.99 214.725C1937.85 115.806 1857.45 26.7904 1786.89 -65.3534C1640.08 -257.084 1458.57 -334.424 1216.82 -251.872C784.458 -104.238 732.549 528.002 371.945 1025.38C317.779 1100.08 257.434 1169.97 180.867 1226.99C-487.602 1724.74 -659.937 2189.36 -771.87 2175.33" stroke="black" stroke-width="3.08238" stroke-miterlimit="10"/>
</g>
<g style="mix-blend-mode:lighten" opacity="0.69">
<path d="M2357.06 -420.675C2544.82 63.2029 2171.87 551.5 2006.51 218.644C1954.31 113.551 1877.03 18.7479 1808.11 -76.1375C1663.4 -275.336 1481.48 -355.585 1236.23 -267.399C807.771 -113.329 779.566 542.937 401.257 1041.67C345.085 1115.72 282.099 1184.93 202.632 1241.24C-493.104 1734.24 -647.79 2224.22 -751.114 2211.26" stroke="black" stroke-width="3.19826" stroke-miterlimit="10"/>
</g>
<g style="mix-blend-mode:lighten" opacity="0.72">
<path d="M2359.21 -417.141C2558.65 73.7604 2177.66 578.109 2020.03 222.544C1970.68 111.22 1896.62 10.6808 1829.31 -86.9403C1686.78 -293.625 1504.32 -376.867 1255.62 -282.938C830.993 -122.569 826.671 557.989 430.549 1057.94C372.383 1131.35 306.744 1199.85 224.374 1255.48C-498.637 1743.67 -635.663 2259.06 -730.377 2247.18" stroke="black" stroke-width="3.31877" stroke-miterlimit="10"/>
</g>
<g style="mix-blend-mode:lighten" opacity="0.74">
<path d="M2361.35 -413.577C2572.47 84.34 2183.22 604.614 2033.54 226.47C1986.99 108.863 1916.23 2.63459 1850.5 -97.717C1710.21 -311.903 1527.1 -398.218 1275.01 -298.457C854.13 -131.896 873.872 573.192 459.847 1074.24C399.696 1147.03 331.391 1214.81 246.123 1269.73C-504.176 1753.06 -623.532 2293.92 -709.638 2283.12" stroke="black" stroke-width="3.43929" stroke-miterlimit="10"/>
</g>
<g style="mix-blend-mode:lighten" opacity="0.77">
<path d="M2363.5 -410.03C2586.31 94.8997 2188.63 630.966 2047.07 230.383C2003.26 106.441 1935.88 -5.42869 1871.71 -108.507C1733.7 -330.205 1549.83 -419.678 1294.41 -313.983C877.187 -141.339 921.166 588.521 489.154 1090.53C427.027 1162.71 356.05 1229.74 267.88 1283.98C-509.709 1762.39 -611.395 2328.78 -688.887 2319.06" stroke="black" stroke-width="3.5598" stroke-miterlimit="10"/>
</g>
<g style="mix-blend-mode:lighten" opacity="0.79">
<path d="M2365.65 -406.482C2600.15 105.469 2193.9 657.187 2060.58 234.295C2019.5 103.958 1955.55 -13.4898 1892.92 -119.298C1757.24 -348.516 1572.5 -441.23 1313.81 -329.513C900.153 -150.878 968.538 603.985 518.459 1106.81C454.367 1178.41 380.704 1244.66 289.638 1298.22C-515.24 1771.67 -599.254 2363.63 -668.138 2354.99" stroke="black" stroke-width="3.68032" stroke-miterlimit="10"/>
</g>
<g style="mix-blend-mode:lighten" opacity="0.82">
<path d="M2367.79 -402.932C2613.98 116.034 2199.06 683.278 2074.1 238.206C2035.69 101.429 1975.23 -21.5526 1914.12 -130.089C1780.83 -366.825 1595.1 -462.872 1333.2 -345.044C923.023 -160.502 1015.96 619.581 547.756 1123.09C481.703 1194.13 405.352 1259.57 311.385 1312.47C-520.783 1780.9 -587.128 2398.48 -647.397 2390.92" stroke="black" stroke-width="3.7962" stroke-miterlimit="10"/>
</g>
<g style="mix-blend-mode:lighten" opacity="0.85">
<path d="M2369.94 -399.383C2627.81 126.601 2204.15 709.244 2087.62 242.122C2051.88 98.8505 1994.93 -29.6064 1935.32 -140.877C1804.47 -385.134 1617.63 -484.6 1352.6 -360.57C945.806 -170.195 1063.46 635.315 577.06 1139.38C509.044 1209.86 430.008 1274.49 333.142 1326.72C-526.313 1790.09 -574.984 2433.34 -626.649 2426.86" stroke="black" stroke-width="3.91671" stroke-miterlimit="10"/>
</g>
<g style="mix-blend-mode:lighten" opacity="0.87">
<path d="M2372.1 -395.842C2641.66 137.161 2209.19 735.087 2101.15 246.029C2068.05 96.2259 2014.67 -37.6673 1956.54 -151.672C1828.17 -403.449 1640.09 -506.421 1372.01 -376.106C968.504 -179.962 1111 651.165 606.371 1155.66C536.402 1225.6 454.672 1289.4 354.901 1340.96C-531.831 1799.24 -562.846 2468.18 -605.897 2462.78" stroke="black" stroke-width="4.03722" stroke-miterlimit="10"/>
</g>
<g style="mix-blend-mode:lighten" opacity="0.9">
<path d="M2374.23 -392.289C2655.48 147.732 2214.18 760.835 2114.65 249.948C2084.19 93.5682 2034.39 -45.7114 1977.73 -162.456C1851.88 -421.748 1662.46 -528.317 1391.39 -391.628C991.087 -189.779 1158.57 667.16 635.661 1171.95C563.741 1241.38 479.313 1304.31 376.644 1355.21C-537.361 1808.36 -550.722 2503.03 -585.162 2498.72" stroke="black" stroke-width="4.15774" stroke-miterlimit="10"/>
</g>
<g style="mix-blend-mode:lighten" opacity="0.92">
<path d="M2376.38 -388.739C2669.31 158.299 2219.14 786.486 2128.17 253.86C2100.33 90.8683 2054.15 -53.7552 1998.94 -173.249C1875.65 -440.049 1684.77 -550.301 1410.79 -407.162C1013.59 -199.649 1206.19 683.263 664.965 1188.23C591.093 1257.15 503.973 1319.2 398.398 1369.45C-542.87 1817.43 -538.586 2537.89 -564.415 2534.65" stroke="black" stroke-width="4.27825" stroke-miterlimit="10"/>
</g>
<g style="mix-blend-mode:lighten" opacity="0.95">
<path d="M2378.53 -385.2C2683.14 168.86 2224.09 812.035 2141.68 257.77C2116.46 88.1395 2073.92 -61.7942 2020.14 -184.043C1899.46 -458.342 1707 -572.363 1430.18 -422.692C1035.99 -209.555 1253.83 699.492 694.262 1204.51C618.439 1272.94 528.56 1333.95 420.144 1383.7C-548.983 1825.16 -526.455 2572.74 -543.678 2570.58" stroke="black" stroke-width="4.39413" stroke-miterlimit="10"/>
</g>
<g style="mix-blend-mode:lighten" opacity="0.97">
<path d="M2380.68 -381.648C2696.98 179.427 2229.04 837.512 2155.21 261.684C2132.61 85.3782 2093.71 -69.8271 2041.35 -194.831C1923.31 -476.621 1729.15 -594.493 1449.59 -438.219C1058.31 -219.5 1301.51 715.843 723.576 1220.8C645.8 1288.75 553.263 1348.92 441.91 1397.94C-554.156 1834.82 -514.312 2607.59 -522.922 2606.51" stroke="black" stroke-width="4.51464" stroke-miterlimit="10"/>
</g>
<g style="mix-blend-mode:lighten">
<path d="M2382.83 -378.105C2710.81 189.988 2233.98 862.907 2168.73 265.591C2103.47 -331.728 1875.88 -688.681 1468.98 -453.755C1028.58 -199.489 1432.79 1002.66 463.657 1412.19C-559.344 1844.48 -502.178 2642.44 -502.178 2642.44" stroke="black" stroke-width="4.63516" stroke-miterlimit="10"/>
</g>
</g>
</g>
</g>
<rect x="320" y="131.731" width="641" height="457.538" rx="33.5602" fill="#FBFBFB" stroke="#ADADAD" stroke-width="3.35602"/>
<path d="M320 165.291C320 146.757 335.025 131.731 353.56 131.731H927.44C945.975 131.731 961 146.757 961 165.291V194.377H320V165.291Z" fill="#ADADAD"/>
<circle cx="378.73" cy="162.495" r="8.39005" fill="#D9D9D9"/>
<circle cx="404.46" cy="162.495" r="8.39005" fill="#D9D9D9"/>
<circle cx="430.189" cy="162.495" r="8.39005" fill="#D9D9D9"/>
<path d="M623.529 329.002C623.529 340.485 614.545 348.947 603.521 348.947C592.496 348.947 583.513 340.485 583.513 329.002C583.513 317.438 592.496 309.058 603.521 309.058C614.545 309.058 623.529 317.438 623.529 329.002ZM614.77 329.002C614.77 321.826 609.564 316.917 603.521 316.917C597.478 316.917 592.272 321.826 592.272 329.002C592.272 336.106 597.478 341.088 603.521 341.088C609.564 341.088 614.77 336.097 614.77 329.002Z" fill="#EA4335"/>
<path d="M666.692 329.002C666.692 340.485 657.708 348.947 646.684 348.947C635.66 348.947 626.677 340.485 626.677 329.002C626.677 317.447 635.66 309.058 646.684 309.058C657.708 309.058 666.692 317.438 666.692 329.002ZM657.934 329.002C657.934 321.826 652.727 316.917 646.684 316.917C640.641 316.917 635.435 321.826 635.435 329.002C635.435 336.106 640.641 341.088 646.684 341.088C652.727 341.088 657.934 336.097 657.934 329.002Z" fill="#FBBC05"/>
<path d="M708.056 310.262V346.07C708.056 360.799 699.37 366.814 689.101 366.814C679.434 366.814 673.616 360.349 671.422 355.062L679.048 351.887C680.406 355.134 683.733 358.964 689.092 358.964C695.665 358.964 699.739 354.909 699.739 347.275V344.406H699.433C697.472 346.825 693.696 348.938 688.93 348.938C678.957 348.938 669.822 340.252 669.822 329.075C669.822 317.816 678.957 309.058 688.93 309.058C693.687 309.058 697.464 311.171 699.433 313.518H699.739V310.272H708.056V310.262V310.262ZM700.359 329.075C700.359 322.051 695.674 316.917 689.712 316.917C683.67 316.917 678.607 322.051 678.607 329.075C678.607 336.025 683.67 341.088 689.712 341.088C695.674 341.088 700.359 336.025 700.359 329.075Z" fill="#4285F4"/>
<path d="M721.769 289.275V347.725H713.226V289.275H721.769V289.275Z" fill="#34A853"/>
<path d="M755.058 335.57L761.856 340.101C759.662 343.348 754.374 348.941 745.238 348.941C733.908 348.941 725.446 340.182 725.446 328.997C725.446 317.136 733.98 309.051 744.258 309.051C754.608 309.051 759.67 317.288 761.325 321.74L762.233 324.006L735.571 335.048C737.613 339.049 740.787 341.091 745.238 341.091C749.698 341.091 752.791 338.897 755.058 335.57ZM734.133 328.394L751.955 320.993C750.975 318.502 748.026 316.767 744.555 316.767C740.104 316.767 733.908 320.697 734.133 328.394V328.394Z" fill="#EA4335"/>
<path d="M551.176 323.814V315.353H579.691C579.97 316.827 580.113 318.572 580.113 320.46C580.113 326.808 578.378 334.659 572.785 340.252C567.344 345.917 560.394 348.938 551.186 348.938C534.118 348.938 519.767 335.036 519.767 317.97C519.767 300.902 534.118 287 551.186 287C560.627 287 567.354 290.705 572.407 295.534L566.437 301.505C562.812 298.105 557.903 295.462 551.176 295.462C538.713 295.462 528.966 305.506 528.966 317.97C528.966 330.432 538.713 340.477 551.176 340.477C559.261 340.477 563.865 337.23 566.814 334.281C569.206 331.889 570.78 328.472 571.4 323.805L551.176 323.814Z" fill="#4285F4"/>
<rect x="433" y="398.49" width="416" height="43.2893" rx="21.6447" fill="#F1F1F1"/>
<path fill-rule="evenodd" clip-rule="evenodd" d="M822.191 423.041L827.587 428.437C827.777 428.627 827.883 428.885 827.883 429.153C827.883 429.421 827.776 429.678 827.587 429.868C827.397 430.058 827.139 430.164 826.871 430.164C826.603 430.164 826.346 430.057 826.156 429.868L820.76 424.472C819.147 425.721 817.118 426.309 815.087 426.116C813.056 425.923 811.174 424.963 809.826 423.432C808.477 421.901 807.762 419.914 807.826 417.874C807.891 415.835 808.73 413.897 810.173 412.454C811.615 411.011 813.553 410.172 815.593 410.108C817.632 410.043 819.62 410.758 821.151 412.107C822.682 413.456 823.641 415.337 823.834 417.368C824.027 419.4 823.439 421.428 822.19 423.041H822.191ZM815.847 424.146C817.443 424.146 818.974 423.511 820.102 422.383C821.231 421.254 821.865 419.724 821.865 418.128C821.865 416.531 821.231 415.001 820.102 413.872C818.974 412.744 817.443 412.11 815.847 412.11C814.251 412.11 812.72 412.744 811.592 413.872C810.463 415.001 809.829 416.531 809.829 418.128C809.829 419.724 810.463 421.254 811.592 422.383C812.72 423.511 814.251 424.146 815.847 424.146V424.146Z" fill="#616161"/>
<path d="M467.711 417.434C467.529 416.878 467.29 416.381 466.993 415.941C466.702 415.495 466.352 415.116 465.945 414.802C465.544 414.489 465.088 414.25 464.576 414.085C464.065 413.92 463.504 413.837 462.893 413.837C461.893 413.837 460.982 414.096 460.163 414.613C459.344 415.13 458.692 415.891 458.208 416.898C457.724 417.904 457.482 419.138 457.482 420.601C457.482 422.064 457.727 423.299 458.216 424.305C458.706 425.311 459.368 426.073 460.204 426.59C461.04 427.107 461.981 427.365 463.025 427.365C463.993 427.365 464.846 427.159 465.582 426.747C466.325 426.329 466.902 425.74 467.315 424.981C467.733 424.217 467.942 423.318 467.942 422.284L468.569 422.416H463.487V420.601H469.921V422.416C469.921 423.807 469.624 425.017 469.03 426.045C468.442 427.074 467.628 427.871 466.589 428.438C465.555 428.998 464.367 429.279 463.025 429.279C461.53 429.279 460.215 428.927 459.082 428.223C457.955 427.519 457.075 426.518 456.443 425.221C455.816 423.923 455.503 422.383 455.503 420.601C455.503 419.265 455.681 418.063 456.039 416.997C456.402 415.924 456.913 415.011 457.573 414.258C458.233 413.505 459.014 412.927 459.916 412.526C460.817 412.124 461.81 411.924 462.893 411.924C463.784 411.924 464.615 412.058 465.385 412.328C466.16 412.592 466.85 412.968 467.455 413.458C468.065 413.942 468.574 414.522 468.981 415.198C469.388 415.869 469.668 416.614 469.822 417.434H467.711ZM478.308 429.312C477.164 429.312 476.161 429.04 475.297 428.495C474.44 427.951 473.769 427.189 473.285 426.21C472.806 425.232 472.567 424.088 472.567 422.779C472.567 421.459 472.806 420.307 473.285 419.323C473.769 418.338 474.44 417.574 475.297 417.03C476.161 416.485 477.164 416.213 478.308 416.213C479.452 416.213 480.453 416.485 481.311 417.03C482.174 417.574 482.845 418.338 483.323 419.323C483.807 420.307 484.049 421.459 484.049 422.779C484.049 424.088 483.807 425.232 483.323 426.21C482.845 427.189 482.174 427.951 481.311 428.495C480.453 429.04 479.452 429.312 478.308 429.312ZM478.308 427.563C479.177 427.563 479.892 427.34 480.453 426.895C481.014 426.45 481.429 425.864 481.698 425.138C481.968 424.412 482.103 423.626 482.103 422.779C482.103 421.932 481.968 421.143 481.698 420.412C481.429 419.68 481.014 419.089 480.453 418.638C479.892 418.187 479.177 417.962 478.308 417.962C477.439 417.962 476.724 418.187 476.164 418.638C475.603 419.089 475.187 419.68 474.918 420.412C474.649 421.143 474.514 421.932 474.514 422.779C474.514 423.626 474.649 424.412 474.918 425.138C475.187 425.864 475.603 426.45 476.164 426.895C476.724 427.34 477.439 427.563 478.308 427.563ZM492.168 429.312C491.024 429.312 490.021 429.04 489.157 428.495C488.299 427.951 487.629 427.189 487.145 426.21C486.666 425.232 486.427 424.088 486.427 422.779C486.427 421.459 486.666 420.307 487.145 419.323C487.629 418.338 488.299 417.574 489.157 417.03C490.021 416.485 491.024 416.213 492.168 416.213C493.312 416.213 494.313 416.485 495.171 417.03C496.034 417.574 496.705 418.338 497.183 419.323C497.667 420.307 497.909 421.459 497.909 422.779C497.909 424.088 497.667 425.232 497.183 426.21C496.705 427.189 496.034 427.951 495.171 428.495C494.313 429.04 493.312 429.312 492.168 429.312ZM492.168 427.563C493.037 427.563 493.752 427.34 494.313 426.895C494.874 426.45 495.289 425.864 495.558 425.138C495.828 424.412 495.963 423.626 495.963 422.779C495.963 421.932 495.828 421.143 495.558 420.412C495.289 419.68 494.874 419.089 494.313 418.638C493.752 418.187 493.037 417.962 492.168 417.962C491.299 417.962 490.584 418.187 490.023 418.638C489.463 419.089 489.047 419.68 488.778 420.412C488.508 421.143 488.374 421.932 488.374 422.779C488.374 423.626 488.508 424.412 488.778 425.138C489.047 425.864 489.463 426.45 490.023 426.895C490.584 427.34 491.299 427.563 492.168 427.563ZM505.995 434.063C505.055 434.063 504.246 433.942 503.57 433.7C502.894 433.464 502.33 433.15 501.879 432.76C501.434 432.375 501.079 431.963 500.815 431.523L502.366 430.434C502.542 430.665 502.764 430.929 503.034 431.226C503.303 431.528 503.672 431.789 504.139 432.009C504.612 432.235 505.231 432.347 505.995 432.347C507.018 432.347 507.862 432.1 508.527 431.605C509.193 431.11 509.526 430.335 509.526 429.279V426.705H509.361C509.218 426.936 509.014 427.222 508.75 427.563C508.492 427.899 508.118 428.198 507.628 428.462C507.144 428.721 506.49 428.85 505.665 428.85C504.642 428.85 503.724 428.608 502.91 428.124C502.102 427.64 501.461 426.936 500.988 426.012C500.521 425.089 500.287 423.967 500.287 422.647C500.287 421.349 500.515 420.219 500.972 419.257C501.428 418.289 502.063 417.541 502.877 417.013C503.691 416.48 504.631 416.213 505.698 416.213C506.523 416.213 507.177 416.35 507.661 416.625C508.151 416.895 508.525 417.203 508.783 417.549C509.047 417.89 509.251 418.171 509.394 418.391H509.592V416.378H511.472V429.411C511.472 430.5 511.225 431.385 510.73 432.067C510.24 432.754 509.581 433.258 508.75 433.577C507.925 433.901 507.007 434.063 505.995 434.063ZM505.929 427.101C506.71 427.101 507.37 426.923 507.909 426.565C508.448 426.208 508.857 425.693 509.138 425.023C509.418 424.352 509.559 423.549 509.559 422.614C509.559 421.701 509.421 420.895 509.146 420.197C508.871 419.499 508.464 418.952 507.925 418.556C507.386 418.16 506.721 417.962 505.929 417.962C505.104 417.962 504.417 418.171 503.867 418.589C503.322 419.007 502.913 419.567 502.638 420.271C502.368 420.975 502.234 421.756 502.234 422.614C502.234 423.494 502.371 424.272 502.646 424.948C502.927 425.619 503.339 426.147 503.883 426.532C504.433 426.912 505.115 427.101 505.929 427.101ZM516.982 412.155V429.048H515.036V412.155H516.982ZM525.86 429.312C524.639 429.312 523.586 429.042 522.701 428.504C521.821 427.959 521.142 427.2 520.663 426.227C520.19 425.248 519.954 424.11 519.954 422.812C519.954 421.514 520.19 420.37 520.663 419.38C521.142 418.385 521.807 417.61 522.66 417.054C523.517 416.493 524.518 416.213 525.662 416.213C526.322 416.213 526.974 416.323 527.617 416.543C528.26 416.763 528.846 417.12 529.374 417.615C529.902 418.105 530.323 418.754 530.636 419.562C530.95 420.37 531.106 421.366 531.106 422.548V423.373H521.34V421.69H529.127C529.127 420.975 528.984 420.337 528.698 419.776C528.417 419.215 528.016 418.773 527.493 418.448C526.976 418.124 526.366 417.962 525.662 417.962C524.887 417.962 524.216 418.154 523.649 418.539C523.089 418.919 522.657 419.413 522.354 420.024C522.052 420.634 521.901 421.289 521.901 421.987V423.109C521.901 424.066 522.066 424.877 522.396 425.542C522.731 426.202 523.196 426.705 523.79 427.052C524.384 427.393 525.074 427.563 525.86 427.563C526.372 427.563 526.833 427.492 527.246 427.349C527.664 427.2 528.024 426.98 528.326 426.689C528.629 426.392 528.863 426.023 529.028 425.583L530.908 426.111C530.71 426.749 530.378 427.31 529.91 427.794C529.443 428.273 528.865 428.647 528.178 428.916C527.491 429.18 526.718 429.312 525.86 429.312ZM550.103 416.378C550.004 415.542 549.603 414.893 548.899 414.431C548.195 413.969 547.332 413.738 546.309 413.738C545.561 413.738 544.906 413.859 544.345 414.101C543.79 414.343 543.356 414.676 543.042 415.099C542.734 415.523 542.58 416.004 542.58 416.543C542.58 416.994 542.687 417.382 542.902 417.706C543.122 418.025 543.402 418.292 543.743 418.506C544.084 418.715 544.442 418.888 544.816 419.026C545.19 419.158 545.533 419.265 545.847 419.347L547.562 419.809C548.002 419.925 548.492 420.084 549.031 420.288C549.575 420.491 550.095 420.769 550.59 421.121C551.09 421.467 551.503 421.913 551.827 422.457C552.152 423.002 552.314 423.67 552.314 424.462C552.314 425.375 552.075 426.199 551.596 426.936C551.123 427.673 550.43 428.259 549.517 428.693C548.61 429.128 547.508 429.345 546.21 429.345C545 429.345 543.952 429.15 543.067 428.759C542.187 428.369 541.494 427.824 540.988 427.126C540.488 426.428 540.205 425.616 540.139 424.693H542.25C542.305 425.331 542.52 425.858 542.894 426.276C543.273 426.689 543.752 426.997 544.329 427.2C544.912 427.398 545.539 427.497 546.21 427.497C546.991 427.497 547.692 427.371 548.313 427.118C548.935 426.859 549.427 426.502 549.79 426.045C550.153 425.583 550.334 425.045 550.334 424.429C550.334 423.868 550.177 423.411 549.864 423.059C549.55 422.707 549.138 422.421 548.627 422.202C548.115 421.982 547.562 421.789 546.969 421.624L544.89 421.03C543.57 420.651 542.525 420.109 541.755 419.405C540.986 418.701 540.601 417.78 540.601 416.642C540.601 415.696 540.856 414.871 541.368 414.167C541.885 413.458 542.578 412.908 543.446 412.518C544.321 412.122 545.297 411.924 546.375 411.924C547.464 411.924 548.431 412.119 549.278 412.509C550.125 412.894 550.796 413.422 551.291 414.093C551.791 414.764 552.055 415.526 552.083 416.378H550.103ZM560.725 429.312C559.505 429.312 558.452 429.042 557.566 428.504C556.686 427.959 556.007 427.2 555.529 426.227C555.056 425.248 554.819 424.11 554.819 422.812C554.819 421.514 555.056 420.37 555.529 419.38C556.007 418.385 556.673 417.61 557.525 417.054C558.383 416.493 559.384 416.213 560.527 416.213C561.187 416.213 561.839 416.323 562.482 416.543C563.126 416.763 563.711 417.12 564.239 417.615C564.767 418.105 565.188 418.754 565.501 419.562C565.815 420.37 565.972 421.366 565.972 422.548V423.373H556.205V421.69H563.992C563.992 420.975 563.849 420.337 563.563 419.776C563.283 419.215 562.881 418.773 562.359 418.448C561.842 418.124 561.231 417.962 560.527 417.962C559.752 417.962 559.081 418.154 558.515 418.539C557.954 418.919 557.522 419.413 557.22 420.024C556.917 420.634 556.766 421.289 556.766 421.987V423.109C556.766 424.066 556.931 424.877 557.261 425.542C557.596 426.202 558.061 426.705 558.655 427.052C559.249 427.393 559.939 427.563 560.725 427.563C561.237 427.563 561.699 427.492 562.111 427.349C562.529 427.2 562.889 426.98 563.192 426.689C563.494 426.392 563.728 426.023 563.893 425.583L565.774 426.111C565.576 426.749 565.243 427.31 564.776 427.794C564.308 428.273 563.731 428.647 563.043 428.916C562.356 429.18 561.583 429.312 560.725 429.312ZM572.661 429.345C571.858 429.345 571.13 429.194 570.475 428.891C569.821 428.583 569.301 428.141 568.916 427.563C568.531 426.98 568.339 426.276 568.339 425.452C568.339 424.726 568.482 424.137 568.768 423.686C569.054 423.23 569.436 422.872 569.914 422.614C570.393 422.355 570.921 422.163 571.498 422.037C572.081 421.905 572.667 421.8 573.255 421.723C574.025 421.624 574.649 421.55 575.128 421.5C575.612 421.445 575.964 421.355 576.184 421.228C576.409 421.102 576.522 420.882 576.522 420.568V420.502C576.522 419.688 576.299 419.056 575.854 418.605C575.414 418.154 574.746 417.929 573.849 417.929C572.92 417.929 572.191 418.132 571.663 418.539C571.135 418.946 570.764 419.38 570.55 419.842L568.702 419.182C569.032 418.413 569.472 417.813 570.022 417.384C570.577 416.95 571.182 416.647 571.836 416.477C572.496 416.301 573.145 416.213 573.783 416.213C574.19 416.213 574.658 416.262 575.185 416.361C575.719 416.455 576.233 416.65 576.728 416.947C577.228 417.244 577.644 417.692 577.974 418.292C578.303 418.891 578.468 419.694 578.468 420.7V429.048H576.522V427.332H576.423C576.291 427.607 576.071 427.901 575.763 428.215C575.455 428.528 575.045 428.795 574.534 429.015C574.022 429.235 573.398 429.345 572.661 429.345ZM572.958 427.596C573.728 427.596 574.377 427.445 574.905 427.143C575.438 426.84 575.84 426.45 576.109 425.971C576.384 425.493 576.522 424.99 576.522 424.462V422.68C576.439 422.779 576.258 422.87 575.977 422.952C575.702 423.029 575.383 423.098 575.02 423.158C574.663 423.213 574.314 423.263 573.973 423.307C573.637 423.345 573.365 423.378 573.156 423.406C572.65 423.472 572.177 423.579 571.737 423.728C571.303 423.871 570.951 424.088 570.682 424.379C570.418 424.665 570.286 425.056 570.286 425.551C570.286 426.227 570.536 426.738 571.036 427.085C571.542 427.426 572.183 427.596 572.958 427.596ZM582.022 429.048V416.378H583.902V418.292H584.034C584.265 417.665 584.683 417.156 585.288 416.766C585.893 416.375 586.575 416.18 587.334 416.18C587.477 416.18 587.655 416.183 587.87 416.188C588.084 416.194 588.247 416.202 588.357 416.213V418.193C588.291 418.176 588.139 418.151 587.903 418.118C587.672 418.08 587.427 418.061 587.169 418.061C586.553 418.061 586.003 418.19 585.519 418.448C585.041 418.701 584.661 419.053 584.381 419.504C584.106 419.95 583.968 420.458 583.968 421.03V429.048H582.022ZM595.426 429.312C594.238 429.312 593.215 429.031 592.357 428.471C591.499 427.91 590.839 427.137 590.378 426.153C589.916 425.168 589.685 424.044 589.685 422.779C589.685 421.492 589.921 420.357 590.394 419.372C590.872 418.382 591.538 417.61 592.39 417.054C593.248 416.493 594.249 416.213 595.393 416.213C596.284 416.213 597.086 416.378 597.801 416.708C598.516 417.038 599.102 417.5 599.558 418.094C600.015 418.688 600.298 419.38 600.408 420.172H598.461C598.313 419.595 597.983 419.083 597.471 418.638C596.966 418.187 596.284 417.962 595.426 417.962C594.667 417.962 594.001 418.16 593.43 418.556C592.863 418.946 592.42 419.499 592.102 420.214C591.788 420.923 591.631 421.756 591.631 422.713C591.631 423.692 591.785 424.544 592.093 425.27C592.407 425.996 592.847 426.56 593.413 426.961C593.985 427.362 594.656 427.563 595.426 427.563C595.932 427.563 596.391 427.475 596.803 427.299C597.216 427.123 597.565 426.87 597.851 426.54C598.137 426.21 598.34 425.814 598.461 425.353H600.408C600.298 426.1 600.026 426.774 599.591 427.373C599.162 427.967 598.593 428.44 597.884 428.792C597.18 429.139 596.361 429.312 595.426 429.312ZM605.201 421.426V429.048H603.254V412.155H605.201V418.358H605.365C605.662 417.703 606.108 417.184 606.702 416.799C607.301 416.408 608.099 416.213 609.094 416.213C609.957 416.213 610.713 416.386 611.362 416.733C612.011 417.074 612.514 417.599 612.872 418.308C613.235 419.012 613.416 419.908 613.416 420.997V429.048H611.47V421.129C611.47 420.123 611.208 419.345 610.686 418.795C610.169 418.239 609.451 417.962 608.533 417.962C607.895 417.962 607.323 418.096 606.817 418.366C606.317 418.635 605.921 419.029 605.629 419.545C605.343 420.062 605.201 420.689 605.201 421.426ZM623.775 429.048V412.155H633.97V413.969H625.82V419.677H633.442V421.492H625.82V427.233H634.102V429.048H623.775ZM646.368 419.215L644.619 419.71C644.509 419.419 644.347 419.136 644.132 418.861C643.923 418.58 643.638 418.349 643.275 418.168C642.912 417.986 642.447 417.896 641.881 417.896C641.105 417.896 640.459 418.074 639.942 418.432C639.431 418.784 639.175 419.232 639.175 419.776C639.175 420.26 639.351 420.643 639.703 420.923C640.055 421.203 640.605 421.437 641.353 421.624L643.233 422.086C644.366 422.361 645.21 422.782 645.766 423.348C646.321 423.909 646.599 424.632 646.599 425.518C646.599 426.243 646.39 426.892 645.972 427.464C645.559 428.036 644.982 428.487 644.24 428.817C643.497 429.147 642.634 429.312 641.65 429.312C640.357 429.312 639.288 429.031 638.441 428.471C637.594 427.91 637.058 427.09 636.832 426.012L638.68 425.551C638.856 426.232 639.189 426.744 639.678 427.085C640.173 427.426 640.819 427.596 641.617 427.596C642.524 427.596 643.244 427.404 643.778 427.019C644.317 426.628 644.586 426.161 644.586 425.616C644.586 425.177 644.432 424.808 644.124 424.511C643.816 424.209 643.343 423.983 642.705 423.835L640.594 423.34C639.433 423.065 638.581 422.639 638.037 422.061C637.498 421.478 637.228 420.75 637.228 419.875C637.228 419.16 637.429 418.528 637.83 417.978C638.237 417.428 638.79 416.997 639.488 416.683C640.192 416.37 640.99 416.213 641.881 416.213C643.134 416.213 644.119 416.488 644.834 417.038C645.554 417.588 646.065 418.314 646.368 419.215ZM658.504 419.215L656.755 419.71C656.645 419.419 656.483 419.136 656.268 418.861C656.059 418.58 655.773 418.349 655.411 418.168C655.048 417.986 654.583 417.896 654.016 417.896C653.241 417.896 652.595 418.074 652.078 418.432C651.567 418.784 651.311 419.232 651.311 419.776C651.311 420.26 651.487 420.643 651.839 420.923C652.191 421.203 652.741 421.437 653.489 421.624L655.369 422.086C656.502 422.361 657.346 422.782 657.902 423.348C658.457 423.909 658.735 424.632 658.735 425.518C658.735 426.243 658.526 426.892 658.108 427.464C657.695 428.036 657.118 428.487 656.376 428.817C655.633 429.147 654.77 429.312 653.786 429.312C652.493 429.312 651.424 429.031 650.577 428.471C649.73 427.91 649.194 427.09 648.968 426.012L650.816 425.551C650.992 426.232 651.325 426.744 651.814 427.085C652.309 427.426 652.955 427.596 653.753 427.596C654.66 427.596 655.38 427.404 655.914 427.019C656.453 426.628 656.722 426.161 656.722 425.616C656.722 425.177 656.568 424.808 656.26 424.511C655.952 424.209 655.479 423.983 654.841 423.835L652.73 423.34C651.569 423.065 650.717 422.639 650.173 422.061C649.634 421.478 649.364 420.75 649.364 419.875C649.364 419.16 649.565 418.528 649.966 417.978C650.373 417.428 650.926 416.997 651.624 416.683C652.328 416.37 653.126 416.213 654.016 416.213C655.27 416.213 656.255 416.488 656.97 417.038C657.69 417.588 658.201 418.314 658.504 419.215ZM666.977 429.312C665.756 429.312 664.703 429.042 663.818 428.504C662.938 427.959 662.259 427.2 661.781 426.227C661.308 425.248 661.071 424.11 661.071 422.812C661.071 421.514 661.308 420.37 661.781 419.38C662.259 418.385 662.924 417.61 663.777 417.054C664.635 416.493 665.636 416.213 666.779 416.213C667.439 416.213 668.091 416.323 668.734 416.543C669.378 416.763 669.963 417.12 670.491 417.615C671.019 418.105 671.44 418.754 671.753 419.562C672.067 420.37 672.223 421.366 672.223 422.548V423.373H662.457V421.69H670.244C670.244 420.975 670.101 420.337 669.815 419.776C669.534 419.215 669.133 418.773 668.611 418.448C668.094 418.124 667.483 417.962 666.779 417.962C666.004 417.962 665.333 418.154 664.767 418.539C664.206 418.919 663.774 419.413 663.472 420.024C663.169 420.634 663.018 421.289 663.018 421.987V423.109C663.018 424.066 663.183 424.877 663.513 425.542C663.848 426.202 664.313 426.705 664.907 427.052C665.501 427.393 666.191 427.563 666.977 427.563C667.489 427.563 667.951 427.492 668.363 427.349C668.781 427.2 669.141 426.98 669.444 426.689C669.746 426.392 669.98 426.023 670.145 425.583L672.026 426.111C671.828 426.749 671.495 427.31 671.027 427.794C670.56 428.273 669.983 428.647 669.295 428.916C668.608 429.18 667.835 429.312 666.977 429.312ZM677.131 421.426V429.048H675.185V416.378H677.065V418.358H677.23C677.527 417.714 677.978 417.197 678.583 416.807C679.188 416.411 679.969 416.213 680.926 416.213C681.784 416.213 682.534 416.389 683.178 416.741C683.821 417.087 684.322 417.615 684.679 418.325C685.037 419.029 685.215 419.919 685.215 420.997V429.048H683.269V421.129C683.269 420.134 683.01 419.358 682.493 418.803C681.976 418.242 681.267 417.962 680.365 417.962C679.744 417.962 679.188 418.096 678.699 418.366C678.215 418.635 677.833 419.029 677.552 419.545C677.272 420.062 677.131 420.689 677.131 421.426ZM694.283 416.378V418.028H687.717V416.378H694.283ZM689.63 413.342H691.577V425.419C691.577 425.968 691.657 426.381 691.816 426.656C691.981 426.925 692.19 427.107 692.443 427.2C692.702 427.288 692.974 427.332 693.26 427.332C693.474 427.332 693.65 427.321 693.788 427.299C693.925 427.272 694.035 427.25 694.118 427.233L694.514 428.982C694.382 429.031 694.197 429.081 693.961 429.13C693.724 429.185 693.425 429.213 693.062 429.213C692.512 429.213 691.973 429.095 691.445 428.858C690.923 428.622 690.488 428.262 690.142 427.778C689.801 427.294 689.63 426.683 689.63 425.946V413.342ZM697.211 429.048V416.378H699.158V429.048H697.211ZM698.201 414.266C697.821 414.266 697.494 414.137 697.219 413.879C696.95 413.62 696.815 413.309 696.815 412.946C696.815 412.583 696.95 412.273 697.219 412.014C697.494 411.756 697.821 411.627 698.201 411.627C698.58 411.627 698.905 411.756 699.174 412.014C699.449 412.273 699.587 412.583 699.587 412.946C699.587 413.309 699.449 413.62 699.174 413.879C698.905 414.137 698.58 414.266 698.201 414.266ZM706.452 429.345C705.649 429.345 704.92 429.194 704.266 428.891C703.611 428.583 703.092 428.141 702.707 427.563C702.322 426.98 702.129 426.276 702.129 425.452C702.129 424.726 702.272 424.137 702.558 423.686C702.844 423.23 703.226 422.872 703.705 422.614C704.183 422.355 704.711 422.163 705.289 422.037C705.871 421.905 706.457 421.8 707.046 421.723C707.815 421.624 708.44 421.55 708.918 421.5C709.402 421.445 709.754 421.355 709.974 421.228C710.199 421.102 710.312 420.882 710.312 420.568V420.502C710.312 419.688 710.089 419.056 709.644 418.605C709.204 418.154 708.536 417.929 707.639 417.929C706.71 417.929 705.981 418.132 705.454 418.539C704.926 418.946 704.554 419.38 704.34 419.842L702.492 419.182C702.822 418.413 703.262 417.813 703.812 417.384C704.367 416.95 704.972 416.647 705.627 416.477C706.287 416.301 706.936 416.213 707.573 416.213C707.98 416.213 708.448 416.262 708.976 416.361C709.509 416.455 710.023 416.65 710.518 416.947C711.019 417.244 711.434 417.692 711.764 418.292C712.094 418.891 712.259 419.694 712.259 420.7V429.048H710.312V427.332H710.213C710.081 427.607 709.861 427.901 709.553 428.215C709.245 428.528 708.835 428.795 708.324 429.015C707.813 429.235 707.188 429.345 706.452 429.345ZM706.749 427.596C707.518 427.596 708.167 427.445 708.695 427.143C709.229 426.84 709.63 426.45 709.9 425.971C710.175 425.493 710.312 424.99 710.312 424.462V422.68C710.23 422.779 710.048 422.87 709.768 422.952C709.493 423.029 709.174 423.098 708.811 423.158C708.453 423.213 708.104 423.263 707.763 423.307C707.428 423.345 707.155 423.378 706.947 423.406C706.441 423.472 705.968 423.579 705.528 423.728C705.093 423.871 704.741 424.088 704.472 424.379C704.208 424.665 704.076 425.056 704.076 425.551C704.076 426.227 704.326 426.738 704.827 427.085C705.333 427.426 705.973 427.596 706.749 427.596ZM717.759 412.155V429.048H715.812V412.155H717.759ZM730.299 419.215L728.55 419.71C728.44 419.419 728.278 419.136 728.063 418.861C727.854 418.58 727.568 418.349 727.205 418.168C726.842 417.986 726.378 417.896 725.811 417.896C725.036 417.896 724.39 418.074 723.873 418.432C723.362 418.784 723.106 419.232 723.106 419.776C723.106 420.26 723.282 420.643 723.634 420.923C723.986 421.203 724.536 421.437 725.283 421.624L727.164 422.086C728.297 422.361 729.141 422.782 729.697 423.348C730.252 423.909 730.53 424.632 730.53 425.518C730.53 426.243 730.321 426.892 729.903 427.464C729.49 428.036 728.913 428.487 728.171 428.817C727.428 429.147 726.565 429.312 725.58 429.312C724.288 429.312 723.219 429.031 722.372 428.471C721.525 427.91 720.989 427.09 720.763 426.012L722.611 425.551C722.787 426.232 723.12 426.744 723.609 427.085C724.104 427.426 724.75 427.596 725.547 427.596C726.455 427.596 727.175 427.404 727.709 427.019C728.248 426.628 728.517 426.161 728.517 425.616C728.517 425.177 728.363 424.808 728.055 424.511C727.747 424.209 727.274 423.983 726.636 423.835L724.525 423.34C723.364 423.065 722.512 422.639 721.967 422.061C721.429 421.478 721.159 420.75 721.159 419.875C721.159 419.16 721.36 418.528 721.761 417.978C722.168 417.428 722.721 416.997 723.419 416.683C724.123 416.37 724.921 416.213 725.811 416.213C727.065 416.213 728.05 416.488 728.764 417.038C729.485 417.588 729.996 418.314 730.299 419.215Z" fill="#616161"/>
</g>
<defs>
<clipPath id="clip0_828_102">
<rect width="1280" height="720" rx="30" fill="white"/>
</clipPath>
<clipPath id="clip1_828_102">
<rect width="4013.16" height="1767.07" fill="white" transform="translate(3152.04 320.328) rotate(150)"/>
</clipPath>
</defs>
</svg>
